# xmcd
#
# Track frame offsets: 
#        150
#        15919
#        38568
#        53353
#        64382
#        78610
#        92221
#        105725
#        118613
#        132262
#        148553
#        153900
#        168669
#        180466
#        192293
#        200532
#        208895
#        222149
#        244380
#        265994
#        277388
#        306600
#        320267
#
# Disc length: 4405 seconds
#
# Revision: 0
# Processed by: cddbd v1.5.2PL0 Copyright (c) Steve Scherf et al.
# Submitted via: ExactAudioCopyFreeDBPlugin 1.0
#
DISCID=59113317
DTITLE=Dmitro Antonink - From Ukraine with love…
DYEAR=2000
DGENRE=Jazz and Pop
TTITLE0=The Central Army Band of Ukraine - Zaporozki-March
TTITLE1=The Central Army Band of Ukraine - Taras Bulba
TTITLE2=The Central Army Band of Ukraine - Highland Cathedral
TTITLE3=The Central Army Band of Ukraine - March “Ochakov‘
TTITLE4=The Central Army Band of Ukraine - Nostalgic Tune
TTITLE5=The Central Army Band of Ukraine - Concert Play
TTITLE6=The Central Army Band of Ukraine - Gopak
TTITLE7=The Central Army Band of Ukraine - Oh, Don‘t Shine
TTITLE8=The Central Army Band of Ukraine - Vatra
TTITLE9=The Central Army Band of Ukraine - Memorial Kalina
TTITLE10=The Central Army Band of Ukraine - Ukrainian Polka
TTITLE11=The Central Army Band of Ukraine - Kolomyild
TTITLE12=The Central Army Band of Ukraine - Variation for clarinetto
TTITLE13=The Central Army Band of Ukraine - Morning In Carpathian Moun
TTITLE13=tains
TTITLE14=The Central Army Band of Ukraine - Huntsmans Chorus
TTITLE15=The Central Army Band of Ukraine - Fantasy in jocular style o
TTITLE15=n popular melody Offenbach, “Sabres dance‘ A.Khatchaturian, ‘
TTITLE15=Caravan‘ H.Ti.
TTITLE16=The Central Army Band of Ukraine - Mambo
TTITLE17=The Central Army Band of Ukraine - Chornobrivtsi (Ukrainian F
TTITLE17=lowers)
TTITLE18=The Central Army Band of Ukraine - Wish 1 Could Shimmy Like M
TTITLE18=y Sister Kate
TTITLE19=The Central Army Band of Ukraine - South
TTITLE20=The Central Army Band of Ukraine - The Best Hits Of World Jaz
TTITLE20=z
TTITLE21=The Central Army Band of Ukraine - March Of The 27th Dragon K
TTITLE21=iev Regiment
TTITLE22=The Central Army Band of Ukraine - The Lord, The Great, The O
TTITLE22=nly
EXTD=
EXTT0=
EXTT1=
EXTT2=
EXTT3=
EXTT4=
EXTT5=
EXTT6=
EXTT7=
EXTT8=
EXTT9=
EXTT10=
EXTT11=
EXTT12=
EXTT13=
EXTT14=
EXTT15=
EXTT16=
EXTT17=
EXTT18=
EXTT19=
EXTT20=
EXTT21=
EXTT22=
PLAYORDER=
